<?xml version="1.0" encoding="utf-8"?>
<!DOCTYPE svg PUBLIC "-//W3C//DTD SVG 20010904//EN" "http://www.w3.org/TR/2001/REC-SVG-20010904/DTD/svg10.dtd">
<svg version="1.0" xmlns="http://www.w3.org/2000/svg" width="856pt" height="2000pt" viewBox="0 0 856 2000" style="" preserveAspectRatio="xMidYMid meet">
<g fill="#6D5E9AFF" stroke="#6D5E9AFF">
<path d="M 423.730 56.250 C 420.655 61.888 415.941 71.000 413.254 76.500 C 410.566 82.000 404.070 94.825 398.819 105.000 C 385.938 129.957 370.791 159.463 358.895 182.771 C 353.485 193.370 346.346 207.137 343.030 213.365 C 339.713 219.592 337.000 225.217 337.000 225.864 C 337.000 226.511 335.944 228.718 334.653 230.770 C 333.362 232.821 329.263 240.575 325.544 248.000 C 321.825 255.425 317.876 263.300 316.769 265.500 C 315.662 267.700 311.437 275.705 307.378 283.290 C 303.320 290.874 299.999 297.624 299.997 298.290 C 299.996 298.955 298.403 302.140 296.458 305.366 C 294.513 308.592 290.229 316.692 286.939 323.366 C 283.649 330.040 279.596 337.975 277.933 341.000 C 276.271 344.025 270.921 354.375 266.045 364.000 C 261.170 373.625 252.787 390.050 247.418 400.500 C 226.358 441.490 217.784 458.204 208.943 475.500 C 203.883 485.400 195.338 502.050 189.954 512.500 C 184.570 522.950 175.805 540.050 170.477 550.500 C 165.149 560.950 156.388 578.050 151.008 588.500 C 145.629 598.950 136.866 616.050 131.536 626.500 C 126.205 636.950 117.443 654.050 112.064 664.500 C 106.686 674.950 98.178 691.600 93.158 701.500 C 88.138 711.400 82.698 721.975 81.067 725.000 C 79.437 728.025 75.540 735.675 72.408 742.000 C 69.276 748.325 64.753 756.919 62.356 761.098 C 59.960 765.277 58.000 769.209 58.000 769.836 C 58.000 770.463 54.400 777.709 50.000 785.939 C 45.600 794.168 42.000 801.824 42.000 802.951 L 42.000 805.000 177.500 805.000 L 313.000 805.000 313.000 1375.500 L 313.000 1946.000 431.000 1946.000 L 549.000 1946.000 549.000 1375.500 L 549.000 805.000 684.500 805.000 C 812.886 805.000 819.999 804.908 819.987 803.250 C 819.980 802.288 818.706 799.025 817.156 796.000 C 815.606 792.975 809.702 781.500 804.035 770.500 C 787.633 738.665 776.454 716.914 765.998 696.500 C 760.646 686.050 751.653 668.500 746.013 657.500 C 740.374 646.500 730.584 627.375 724.258 615.000 C 717.931 602.625 711.197 589.688 709.292 586.250 C 707.387 582.813 706.069 580.000 706.363 580.000 C 706.658 580.000 705.178 576.963 703.074 573.250 C 700.971 569.538 695.776 559.525 691.531 551.000 C 687.286 542.475 683.414 534.825 682.926 534.000 C 680.068 529.161 669.209 507.704 667.438 503.392 C 666.284 500.583 664.432 496.983 663.324 495.392 C 662.216 493.802 658.734 487.325 655.585 481.000 C 652.436 474.675 648.454 466.800 646.735 463.500 C 645.017 460.200 639.236 448.950 633.889 438.500 C 615.649 402.850 605.232 382.511 595.731 364.000 C 590.509 353.825 581.749 336.725 576.266 326.000 C 570.782 315.275 561.658 297.500 555.991 286.500 C 550.323 275.500 541.774 258.850 536.993 249.500 C 524.741 225.540 510.035 196.858 498.027 173.500 C 492.371 162.500 484.709 147.391 481.000 139.925 C 477.291 132.459 472.133 122.671 469.539 118.173 C 466.945 113.675 464.737 109.434 464.632 108.748 C 464.380 107.094 455.858 90.477 450.273 80.748 C 447.825 76.484 445.730 72.434 445.616 71.748 C 445.405 70.467 435.849 51.333 433.711 47.909 C 431.375 44.169 429.432 45.793 423.730 56.250 "/></g>
</svg>
