<?xml version="1.0" encoding="utf-8"?>
<!DOCTYPE svg PUBLIC "-//W3C//DTD SVG 20010904//EN" "http://www.w3.org/TR/2001/REC-SVG-20010904/DTD/svg10.dtd">
<svg version="1.0" xmlns="http://www.w3.org/2000/svg" width="856pt" height="2000pt" viewBox="0 0 856 2000" style="" preserveAspectRatio="xMidYMid meet">
<g fill="#6D5E9AFF" stroke="#6D5E9AFF">
<path d="M 314.000 617.000 L 314.000 1188.000 178.000 1188.000 C 69.857 1188.000 42.004 1188.256 42.018 1189.250 C 42.028 1189.938 43.445 1192.975 45.167 1196.000 C 46.888 1199.025 53.021 1210.725 58.794 1222.000 C 84.084 1271.390 88.285 1279.582 98.030 1298.500 C 103.696 1309.500 110.998 1323.900 114.258 1330.500 C 117.517 1337.100 122.581 1346.776 125.510 1352.003 C 128.439 1357.230 130.985 1362.180 131.168 1363.003 C 131.350 1363.826 131.725 1364.725 132.000 1365.000 C 132.275 1365.275 134.626 1369.775 137.224 1375.000 C 139.822 1380.225 144.097 1388.607 146.724 1393.627 C 149.351 1398.646 152.277 1404.496 153.227 1406.627 C 154.177 1408.757 158.340 1416.690 162.477 1424.256 C 166.615 1431.821 170.000 1438.500 170.000 1439.097 C 170.000 1439.693 174.050 1447.648 179.000 1456.773 C 183.950 1465.899 188.000 1473.649 188.000 1473.995 C 188.000 1475.145 192.674 1484.334 199.883 1497.360 C 203.797 1504.433 207.012 1510.733 207.026 1511.360 C 207.041 1511.987 208.892 1515.875 211.141 1520.000 C 213.390 1524.125 219.963 1536.725 225.749 1548.000 C 244.511 1584.563 256.079 1607.130 265.733 1626.000 C 270.938 1636.175 279.411 1652.721 284.561 1662.768 C 311.340 1715.005 312.982 1718.206 342.419 1775.500 C 347.787 1785.950 355.971 1802.090 360.605 1811.367 C 365.239 1820.643 369.965 1829.547 371.109 1831.153 C 372.252 1832.758 373.287 1834.618 373.409 1835.286 C 373.633 1836.510 387.280 1863.504 390.960 1870.000 C 392.050 1871.925 396.168 1880.025 400.112 1888.000 C 404.055 1895.975 408.343 1904.067 409.640 1905.982 C 410.938 1907.897 412.000 1910.015 412.000 1910.689 C 412.000 1912.067 425.122 1937.735 428.386 1942.743 C 429.549 1944.527 431.179 1945.989 432.009 1945.993 C 434.062 1946.002 435.059 1944.341 446.119 1922.500 C 451.410 1912.050 460.139 1894.950 465.516 1884.500 C 470.893 1874.050 478.422 1859.200 482.247 1851.500 C 486.071 1843.800 491.587 1833.225 494.504 1828.000 C 497.421 1822.775 500.127 1817.422 500.517 1816.105 C 501.162 1813.927 506.554 1803.616 516.338 1785.849 C 518.352 1782.191 520.000 1778.684 520.000 1778.057 C 520.000 1777.429 522.868 1771.647 526.373 1765.208 C 535.088 1749.197 538.422 1742.731 538.605 1741.483 C 538.691 1740.902 542.276 1733.918 546.574 1725.964 C 550.871 1718.009 554.863 1710.393 555.444 1709.041 C 556.025 1707.688 558.255 1703.188 560.400 1699.041 C 562.545 1694.893 568.791 1682.725 574.279 1672.000 C 579.768 1661.275 588.992 1643.275 594.777 1632.000 C 600.562 1620.725 609.214 1603.850 614.004 1594.500 C 618.794 1585.150 627.334 1568.500 632.982 1557.500 C 638.631 1546.500 647.751 1528.725 653.250 1518.000 C 678.006 1469.717 682.279 1461.384 691.457 1443.500 C 696.820 1433.050 705.722 1415.725 711.238 1405.000 C 716.755 1394.275 724.061 1379.875 727.474 1373.000 C 730.887 1366.125 735.512 1357.268 737.751 1353.317 C 739.991 1349.366 742.108 1345.235 742.457 1344.136 C 742.969 1342.521 755.226 1318.649 759.726 1310.500 C 760.333 1309.400 764.079 1302.004 768.051 1294.064 C 772.022 1286.125 776.548 1277.462 778.109 1274.814 C 779.671 1272.166 780.703 1270.000 780.404 1270.000 C 780.105 1270.000 781.636 1266.738 783.807 1262.750 C 787.203 1256.512 801.893 1227.949 815.881 1200.384 C 818.147 1195.920 820.000 1191.308 820.000 1190.134 L 820.000 1188.000 685.000 1188.000 L 550.000 1188.000 550.000 617.000 L 550.000 46.000 432.000 46.000 L 314.000 46.000 314.000 617.000 "/></g>
</svg>
