<?xml version="1.0" encoding="utf-8"?>
<!DOCTYPE svg PUBLIC "-//W3C//DTD SVG 20010904//EN" "http://www.w3.org/TR/2001/REC-SVG-20010904/DTD/svg10.dtd">
<svg version="1.0" xmlns="http://www.w3.org/2000/svg" width="980pt" height="978pt" viewBox="0 0 980 978" style="" preserveAspectRatio="xMidYMid meet">
<g fill="#000000FF" stroke="#000000FF">
<path d="M 814.000 1.876 C 812.625 2.328 809.700 3.636 807.500 4.782 C 801.810 7.747 260.844 549.152 258.228 554.500 C 257.152 556.700 242.430 600.082 225.512 650.905 C 195.769 740.253 194.767 743.514 195.244 749.449 C 196.542 765.626 209.672 778.176 225.432 778.303 C 230.789 778.346 242.337 774.745 324.000 747.561 C 374.875 730.627 418.300 715.726 420.500 714.449 C 422.700 713.172 546.542 590.036 695.705 440.813 C 995.527 140.871 971.970 165.514 971.990 151.788 C 971.997 147.410 971.262 143.062 969.878 139.288 C 967.868 133.807 964.384 130.129 904.128 69.881 C 853.706 19.466 839.484 5.786 835.605 3.971 C 830.349 1.512 818.575 0.370 814.000 1.876 M 740.753 233.253 L 777.996 270.506 582.748 465.645 L 387.500 660.784 331.750 679.311 C 301.088 689.501 276.000 697.532 276.000 697.159 C 276.000 696.785 284.326 671.509 294.503 640.990 L 313.005 585.500 507.752 390.750 C 614.862 283.638 702.726 196.000 703.004 196.000 C 703.282 196.000 720.269 212.764 740.753 233.253 M 860.502 114.002 L 897.493 151.003 859.748 188.748 L 822.003 226.493 784.502 189.002 L 747.000 151.510 784.245 114.255 C 804.730 93.765 821.945 77.000 822.500 77.000 C 823.056 77.000 840.156 93.651 860.502 114.002 "/></g>
<g fill="#000000FF" stroke="#000000FF">
<path d="M 116.000 31.470 C 72.827 38.811 35.392 66.468 15.634 105.620 C 9.762 117.256 4.575 132.760 2.292 145.502 C 0.592 154.986 0.500 173.363 0.500 503.000 C 0.500 836.808 0.573 850.914 2.352 861.000 C 12.910 920.855 59.095 966.599 118.000 975.545 C 132.289 977.716 847.711 977.716 862.000 975.545 C 899.641 969.829 933.312 948.617 954.933 917.000 C 966.436 900.178 974.047 881.416 977.648 861.000 C 979.402 851.056 979.500 841.558 979.500 681.500 L 979.500 512.500 977.271 507.670 C 973.798 500.144 969.634 495.619 962.796 491.939 C 957.146 488.898 955.679 488.550 948.500 488.543 C 942.049 488.537 939.537 489.006 935.526 490.965 C 929.199 494.056 923.142 500.107 919.976 506.500 L 917.500 511.500 916.972 682.000 C 916.380 873.143 917.107 855.881 908.955 872.500 C 899.418 891.943 881.395 906.740 860.000 912.692 C 853.785 914.421 837.582 914.500 490.000 914.500 C 142.418 914.500 126.215 914.421 120.000 912.692 C 92.592 905.068 71.564 883.376 65.040 856.000 C 63.026 847.549 63.014 845.503 63.024 503.500 C 63.036 130.775 62.697 153.981 68.330 140.035 C 77.074 118.386 94.064 102.778 117.500 94.864 L 124.500 92.500 306.000 92.000 L 487.500 91.500 492.608 88.805 C 495.417 87.323 499.773 83.822 502.287 81.026 C 508.290 74.349 510.394 68.042 509.785 58.554 C 509.045 47.026 503.370 38.446 492.722 32.756 L 488.500 30.500 306.000 30.347 C 162.089 30.227 121.914 30.464 116.000 31.470 "/></g>
</svg>
