<?xml version="1.0" standalone="no"?>
<!DOCTYPE svg PUBLIC "-//W3C//DTD SVG 20010904//EN"
 "http://www.w3.org/TR/2001/REC-SVG-20010904/DTD/svg10.dtd">
<svg version="1.0" xmlns="http://www.w3.org/2000/svg"
 width="740.000000pt" height="460.000000pt" viewBox="0 0 740.000000 460.000000"
 preserveAspectRatio="xMidYMid meet">

<g transform="translate(0.000000,460.000000) scale(0.100000,-0.100000)"
fill="#000000" stroke="none">
<path d="M5163 4133 c27 -28 45 -52 40 -54 -11 -5 -73 -97 -73 -108 0 -5 -7
-14 -15 -21 -7 -6 -28 -37 -46 -68 -17 -31 -53 -89 -78 -129 -25 -40 -58 -91
-72 -115 -105 -172 -100 -166 -169 -193 -65 -25 -102 -45 -87 -45 4 0 22 7 39
16 69 36 217 64 333 64 l112 0 7 63 c14 128 78 343 130 437 13 22 11 27 -21
66 -19 24 -60 64 -91 90 l-57 47 48 -50z"/>
<path d="M7183 3975 c45 -92 83 -197 109 -309 30 -126 32 -428 4 -556 -40
-186 -125 -388 -228 -548 -22 -34 -39 -64 -37 -65 24 -17 60 -37 67 -37 13 0
168 324 197 413 53 160 68 259 69 442 1 143 -3 187 -23 275 -27 122 -75 253
-132 360 -53 97 -71 115 -26 25z"/>
<path d="M7147 3915 c15 -30 29 -53 31 -51 4 5 -46 106 -53 106 -3 0 7 -25 22
-55z"/>
<path d="M7251 3634 c0 -11 3 -14 6 -6 3 7 2 16 -1 19 -3 4 -6 -2 -5 -13z"/>
<path d="M7271 3524 c0 -11 3 -14 6 -6 3 7 2 16 -1 19 -3 4 -6 -2 -5 -13z"/>
<path d="M7282 3440 c0 -19 2 -27 5 -17 2 9 2 25 0 35 -3 9 -5 1 -5 -18z"/>
<path d="M4604 3374 c-18 -14 -18 -15 4 -4 12 6 22 13 22 15 0 8 -5 6 -26 -11z"/>
<path d="M4091 2570 c0 -14 -4 -36 -7 -50 -5 -22 -4 -23 6 -7 6 9 9 32 7 50
-3 25 -4 26 -6 7z"/>
<path d="M6445 2526 c91 -29 131 -63 163 -136 19 -44 20 -45 30 -20 5 14 22
51 36 84 28 64 31 75 16 60 -7 -7 -36 -5 -93 7 -45 10 -107 18 -137 18 l-55 0
40 -13z"/>
<path d="M6007 2459 c8 -31 -16 -77 -46 -87 -16 -6 -49 -8 -74 -5 l-47 6 0
-92 c0 -90 0 -91 36 -131 33 -36 127 -110 199 -156 l29 -19 -27 39 c-71 106
-56 252 43 402 l20 31 -32 6 c-18 4 -49 10 -69 15 -33 8 -36 7 -32 -9z"/>
<path d="M5520 2400 c14 -19 60 -71 102 -115 76 -78 78 -79 71 -45 -8 42 -70
120 -95 120 -10 0 -37 17 -60 38 l-42 37 24 -35z"/>
<path d="M6310 2379 c-67 -28 -120 -120 -120 -207 0 -69 12 -90 67 -114 103
-46 193 28 218 178 8 52 -10 120 -35 134 -30 16 -102 21 -130 9z"/>
<path d="M3970 2337 l0 -47 45 0 c25 0 45 1 45 3 0 2 -20 23 -45 47 l-45 44 0
-47z"/>
<path d="M6905 2344 c-51 -26 -72 -52 -70 -84 1 -17 2 -63 4 -102 l2 -73 89
95 c81 85 90 98 85 125 -9 53 -53 69 -110 39z"/>
<path d="M6636 2338 c-3 -7 -7 -50 -9 -95 -11 -176 -125 -323 -265 -340 l-50
-6 65 -48 c35 -27 66 -49 67 -49 2 0 6 10 10 23 4 16 39 43 121 91 l115 68 1
52 c2 97 -3 243 -10 277 -7 34 -37 53 -45 27z"/>
<path d="M5480 2129 c0 -170 -1 -180 -21 -200 l-22 -22 29 7 c16 4 32 13 36
19 24 39 42 277 25 338 -4 15 -16 29 -27 32 -19 5 -20 1 -20 -174z"/>
<path d="M5287 2262 l-28 -29 28 -6 c35 -7 35 -6 31 33 l-3 32 -28 -30z"/>
<path d="M4033 2104 c21 -43 24 -46 55 -40 46 7 66 24 50 43 -19 23 -64 43
-97 43 l-31 0 23 -46z"/>
<path d="M5850 2089 c0 -10 3 -19 8 -19 4 -1 20 -11 35 -24 l28 -23 -24 -64
c-68 -180 -171 -341 -311 -487 -145 -151 -302 -268 -424 -318 -31 -12 -61 -29
-66 -36 -5 -9 3 -32 24 -67 36 -61 33 -67 -40 -76 -25 -4 -52 -7 -60 -9 -29
-4 49 -36 88 -36 50 0 65 18 56 64 -12 66 -2 80 101 135 156 84 308 208 424
345 78 92 207 280 247 358 14 29 33 61 42 71 22 25 65 21 134 -14 59 -30 85
-29 73 2 -3 8 -42 31 -85 52 -44 20 -118 66 -165 102 -69 52 -85 60 -85 44z"/>
<path d="M5259 2042 c-60 -39 -71 -53 -55 -74 14 -19 110 -58 144 -58 l22 0
-20 20 c-14 14 -20 33 -20 64 0 47 -7 76 -19 76 -4 0 -27 -13 -52 -28z"/>
<path d="M4225 1970 c-3 -6 1 -7 9 -4 18 7 21 14 7 14 -6 0 -13 -4 -16 -10z"/>
<path d="M4181 1949 l-24 -10 28 -29 c35 -37 37 -37 24 -3 -5 14 -8 32 -5 40
3 7 4 13 3 12 -1 0 -13 -5 -26 -10z"/>
<path d="M6258 1881 c28 -24 92 -115 92 -132 0 -8 -80 -29 -114 -29 -14 0 -26
-4 -26 -9 0 -21 46 -41 94 -41 45 0 52 4 88 42 21 23 38 46 38 51 0 10 -63 73
-113 113 -14 12 -40 24 -58 26 l-32 5 31 -26z"/>
<path d="M4850 1185 c0 -6 107 -65 119 -65 6 0 11 5 11 10 0 6 -6 10 -12 10
-7 0 -37 11 -65 25 -29 13 -53 22 -53 20z"/>
</g>
</svg>
